<svg width="0" height="0" xmlns="http://www.w3.org/2000/svg" class="hidden">
  <symbol viewBox="0 0 384 448" id="menu">
    <path d="M384 336v32c0 8.75-7.25 16-16 16H16c-8.75 0-16-7.25-16-16v-32c0-8.75 7.25-16 16-16h352c8.75 0 16 7.25 16 16zm0-128v32c0 8.75-7.25 16-16 16H16c-8.75 0-16-7.25-16-16v-32c0-8.75 7.25-16 16-16h352c8.75 0 16 7.25 16 16zm0-128v32c0 8.75-7.25 16-16 16H16c-8.75 0-16-7.25-16-16V80c0-8.75 7.25-16 16-16h352c8.75 0 16 7.25 16 16z"></path>
  </symbol>
  <symbol viewBox="0 0 384 448" id="close">
    <path d="M324.5 330.5c0 6.25-2.5 12.5-7 17l-34 34c-4.5 4.5-10.75 7-17 7s-12.5-2.5-17-7L176 308l-73.5 73.5c-4.5 4.5-10.75 7-17 7s-12.5-2.5-17-7l-34-34c-4.5-4.5-7-10.75-7-17s2.5-12.5 7-17L108 240l-73.5-73.5c-4.5-4.5-7-10.75-7-17s2.5-12.5 7-17l34-34c4.5-4.5 10.75-7 17-7s12.5 2.5 17 7L176 172l73.5-73.5c4.5-4.5 10.75-7 17-7s12.5 2.5 17 7l34 34c4.5 4.5 7 10.75 7 17s-2.5 12.5-7 17L244 240l73.5 73.5c4.5 4.5 7 10.75 7 17z"></path>
  </symbol>
</svg>
