<svg width="26" height="20" fill="none" xmlns="http://www.w3.org/2000/svg"><path d="M25.759 2.367c-.947.402-1.966.673-3.035.796 1.09-.626 1.928-1.615 2.323-2.794-1.02.58-2.151.999-3.356 1.225A5.394 5.394 0 0017.834 0c-2.918 0-5.284 2.26-5.284 5.049 0 .396.047.781.137 1.15C8.295 5.99 4.401 3.98 1.795.925a4.853 4.853 0 00-.716 2.538c0 1.752.933 3.297 2.351 4.203a5.444 5.444 0 01-2.393-.632l-.001.064c0 2.447 1.821 4.487 4.239 4.951a5.517 5.517 0 01-2.387.086c.673 2.006 2.624 3.466 4.937 3.507a10.925 10.925 0 01-6.564 2.161c-.426 0-.847-.024-1.261-.07A15.473 15.473 0 008.101 20c9.72 0 15.035-7.693 15.035-14.366 0-.219-.005-.436-.015-.653a10.51 10.51 0 002.637-2.614" fill="#fff"/></svg>