<svg width="100" height="33" fill="none" xmlns="http://www.w3.org/2000/svg"><g clip-path="url(#clip0)"><path d="M9.718 17.193c-2.008 2.55-5.98 2.616-8.223.333-2.13-2.146-1.869-5.566.045-7.692.927-2.818 5.004-2.467 7.153-.748 2.49 2.007 3.054 5.524 1.025 8.107zM13.504 9.482c-1.973 0-2.784-1.23-2.953-2.724-.635-1.869.217-4.056 2.306-4.601a3.633 3.633 0 014.486 3.016 3.846 3.846 0 01-3.839 4.31z" fill="#FFDCDC"/><path d="M19.727 31.123l.123-.232c-.826-.527-1.648-1.061-2.47-1.592a12.116 12.116 0 01-1.914-1.869c-.77-.848-1.543-1.7-2.317-2.545-.067-.07-.153-.153-.16-.22a10.374 10.374 0 01-1.87-2.736 22.765 22.765 0 01-1.338-2.422c-.04-.09.053-.247.083-.374.166-.038.326-.1.474-.183a3.413 3.413 0 001.028-1.611c.789-2.018 1.465-4.063 1.39-6.272a1.494 1.494 0 00-.1-.344 1.266 1.266 0 00-.288.21c-.524.691-1.054 1.379-1.548 2.093a8.817 8.817 0 00-1.495 3.393c-.112.58-.127 1.174-.183 1.76a1.209 1.209 0 01-.09-.149c-.313-.747-.616-1.495-.941-2.242a.426.426 0 01.112-.527c.376-.353.718-.741 1.02-1.159a14.44 14.44 0 001.746-4.32c.124-.548.205-1.104.242-1.664 0-.172-.12-.355-.183-.534a1.633 1.633 0 00-.486.284c-.403.486-.788.99-1.154 1.495A8.125 8.125 0 007.86 12.57c-.1.568-.146 1.147-.22 1.723h-.038l-.684-2.706.195.287c.076-.155.165-.303.265-.444.445-.557 1.017-1.047 1.323-1.671.451-.966.826-1.966 1.121-2.99.115-.479.175-.97.18-1.462 0-.123-.086-.25-.135-.373-.1.04-.243.056-.295.13C8.843 6.07 8.077 7.053 7.422 8.1a10.09 10.09 0 00-.694 1.75 1.6 1.6 0 01.056-1.092 19.435 19.435 0 001.222-4.829 33.23 33.23 0 00.153-3.51A1.454 1.454 0 008.032 0c-.134.067-.314.105-.404.213a7.67 7.67 0 00-1.61 3.054c-.404 1.749-.225 3.498.108 5.232.153.796.318 1.589.478 2.392-.796-.302-1.495-.609-2.212-.833A8.294 8.294 0 00.56 9.942a1.38 1.38 0 00-.438.243c.08.16.181.307.303.437a4.908 4.908 0 003.05 1.1 9.053 9.053 0 002.616-.315c.464-.13.524-.078.628.374.127.55.254 1.099.396 1.644.101.404.225.808.348 1.26-.108-.06-.168-.086-.224-.123a4.186 4.186 0 00-2.934-.748c-1.084.176-2.15.471-3.222.722-.172.038-.34.095-.501.168a.269.269 0 000 .512c.532.269 1.087.488 1.66.654.69.122 1.388.2 2.089.235a6.477 6.477 0 003.364-.579l1.27 3.027a8.032 8.032 0 00-4.361-.373c-1.122.243-2.243.635-3.334.979-.139.045-.247.187-.374.28.116.124.21.307.351.374.686.307 1.396.557 2.123.748.694.105 1.395.153 2.097.145a7.717 7.717 0 003.528-.833c.15-.075.294-.157.434-.247l2.478 4.19c-.374-.146-.811-.336-1.252-.47-1.869-.576-3.816-.576-5.752-.375-.71.068-1.413.22-2.116.348-.303.056-.374.21-.183.396a6.764 6.764 0 002.127 1.525c1.352.55 2.798.83 4.257.826a5.8 5.8 0 003.517-.938.504.504 0 01.482.052c.811.894 1.592 1.813 2.422 2.77l-.658-.217a9.283 9.283 0 00-2.616-.53 11.41 11.41 0 00-4.893.986c-.422.172-.863.307-1.289.464a2.082 2.082 0 00-.284.153c.075.108.127.276.224.314.796.284 1.581.676 2.403.777 1.783.22 3.585.46 5.39.116.923-.172 1.85-.329 2.598-.972a1.34 1.34 0 01.18-.112c.134.153.281.295.44.423.815.553 1.63 1.12 2.46 1.633l.321.198a.12.12 0 00.041-.06zM9.636 6.047c-.374 1.72-.748 3.458-2.138 4.729a24.45 24.45 0 012.134-4.729h.004zm-.42-.127c-.698 1.608-1.494 3.41-2.242 5.188-.018-2.138 1.077-3.786 2.24-5.188h.003zM1.253 10.16a7.745 7.745 0 014.111.564l-4.11-.47v-.094zm-.46.325l5.042.613c-1.196.718-4.238.306-5.042-.613zM6.31 7.89c-.669-2.616 0-6.002 1.465-7.352C6.83 2.89 6.683 5.393 6.31 7.89zm1.495-6.62c.336.913-.407 5.465-1.166 6.874.206-2.306.355-4.623 1.159-6.873h.007zM6.388 14.447c.291.135.56.31.84.467l-.037.13a33.92 33.92 0 00-5.778-.28c1.637-.452 3.263-1.106 4.975-.317zm-5.125.747c.62-.25 4.986-.138 6.07.157-1.177.722-5.15.59-6.07-.16v.003zm6.96-.373a36.46 36.46 0 012.706-6.104c-.505 2.194-1.047 4.388-2.706 6.089v.015zm2.616-6.836l-2.807 6.092c-.09-2.49 1.42-4.261 2.807-6.107v.015zM1.282 19.57c2.325-1.218 6.032-1.656 7.744-.52a3.094 3.094 0 01-.373-.026c-1.305-.239-2.594-.048-3.88.146-.964.146-1.929.288-2.893.419a3.852 3.852 0 01-.587-.037l-.011.018zm.938.24c2.306-.28 4.586-.916 6.96-.486-1.006.975-4.751 1.607-6.96.485zm10.241-7.98a1.84 1.84 0 010 .35c-.202.999-.374 2.012-.635 2.991-.268.91-.598 1.8-.987 2.665a5.1 5.1 0 01-.748.964c-.078.101-.149.206-.224.31-.026-.15-.108-.317-.063-.44.598-1.643 1.204-3.281 1.82-4.916.24-.646.49-1.289.747-1.936l.09.012zm-.62.43c-.766 2.01-1.529 4.025-2.318 6.095-.179-2.433.853-4.346 2.318-6.096zm-.22 11.84l-7.839-.553c1.48-.557 6.037-.61 7.838.553zm-1.122 1.495a9.994 9.994 0 01-6.388-1.054 5.964 5.964 0 01-.848-.661l.041-.083c3.005.23 6.015.461 9.03.696.064 0 .12.097.217.183a3.914 3.914 0 01-2.045.916l-.007.003zm5.176 2.81c-2.75.188-5.505.08-8.334.076 2.81-1.23 5.565-1.372 8.334-.075zm-.205.79a10.419 10.419 0 01-4.141.631c-.598-.04-1.193-.104-1.79-.108a7.557 7.557 0 01-3.058-.77c3.203-.318 6.418.067 9.62-.28 0 .04.02.078.027.115-.203.167-.423.31-.658.426v-.014zM14.767 7.961c-.303.766-.882 1.076-1.532.819a1.249 1.249 0 01-.774-1.566c.236-.613 1.121-1.054 1.712-.83a1.248 1.248 0 01.594 1.577zm-.291-.112a.976.976 0 00-.456-1.185 1.177 1.177 0 00-1.312.624.94.94 0 00.598 1.215c.493.194.938-.06 1.17-.654z" fill="#AE7C78"/><path d="M4.227 7.101a.815.815 0 01.55 1.02 1.013 1.013 0 01-1.316.599.796.796 0 01-.374-1.062.856.856 0 011.14-.557zm-.112.262a.598.598 0 00-.8.374.58.58 0 00.243.747.777.777 0 00.957-.43.557.557 0 00-.404-.676l.004-.015zM11.904 5.016c.187-.43.47-.617.747-.494a.781.781 0 01.374.946.657.657 0 01-.852.254.478.478 0 01-.27-.706zM3.76 5.27a.542.542 0 01.28.747.635.635 0 01-.747.356c-.25-.101-.333-.404-.202-.73.13-.324.396-.485.669-.373zM1.398 6.593c.13-.374.344-.374.5-.269.158.105.18.28.27.426a1.409 1.409 0 01-.546.176c-.1-.011-.176-.258-.224-.333zM14.113 5.057c-.07-.254-.175-.437-.127-.505a1.94 1.94 0 01.464-.373c.077.184.12.38.127.579 0 .101-.232.157-.464.3zM20.224 16.468c3.058.407 3.943 1.917 3.943 3.483 0 2.198-1.741 3.738-4.638 3.738-.576 0-1.738-.06-3.323-.06-.904 0-1.869.023-2.396.06v-.374c1.312-.056 1.566-.254 1.566-1.66v-9.59c0-1.405-.254-1.603-1.566-1.66v-.373c.539.037 1.495.056 2.359.056 1.218 0 2.452-.038 2.915-.038 2.706-.014 4.09 1.241 4.09 3.032 0 1.368-.775 2.698-2.935 3.363l-.015.023zm-3.053-4.403v4.38h1.3c2.273 0 2.833-1.495 2.833-3.165 0-1.895-.773-2.874-2.71-2.874-1.17 0-1.424.328-1.424 1.659zm5.064 7.8c0-1.962-.99-3.102-3.442-3.102H17.17v4.885c0 1.35.254 1.604 1.45 1.604 2.53 0 3.614-1.2 3.614-3.387zM34.715 18.733c0 3.708-1.932 5.232-4.384 5.232-2.452 0-4.388-1.54-4.388-5.232 0-3.693 1.932-5.255 4.388-5.255 2.455 0 4.384 1.54 4.384 5.255zm-6.896 0c0 3.453 1.047 4.859 2.512 4.859s2.508-1.394 2.508-4.86c0-3.464-1.04-4.858-2.508-4.858-1.47 0-2.512 1.398-2.512 4.859zM42.149 13.762v.374h-2.86v7.475c0 1.215.464 1.64 1.238 1.64.773 0 1.338-.556 1.745-2.066l.374.097c-.265 1.495-.946 2.669-2.508 2.669-.89 0-1.409-.217-1.831-.643-.565-.576-.748-1.33-.748-2.706v-6.455H35.69v-.374h1.87V10.82c.588 0 1.173-.091 1.733-.272v3.225l2.856-.011zM49.613 14.203c.613.62.77 1.338.77 2.706v5.37c0 .625.153.917.594.917.33-.018.641-.16.871-.397l.217.333c-.479.448-1.108.7-1.764.706-1.35 0-1.66-.81-1.66-1.715a3.364 3.364 0 01-2.971 1.715c-1.293 0-2.456-.65-2.456-2.16 0-1.51 1.181-2.209 3.114-3.02 1.293-.534 2.313-.867 2.313-1.64V15.81c0-1.622-.792-1.944-1.794-1.944-.661 0-1.472.131-1.913.688a1.191 1.191 0 01.904 1.181 1.013 1.013 0 01-1.121 1.047c-.662 0-1.047-.501-1.047-1.2 0-.564.374-1.01.905-1.375a4.985 4.985 0 012.71-.73c1.072 0 1.883.285 2.328.726zm-.972 3.592c-.209.314-.635.508-1.85 1.121-.848.407-1.869.964-1.869 2.456 0 1.158.658 1.697 1.548 1.697.773 0 1.525-.408 2.179-1.462l-.008-3.812zM61.184 14.203c.483.527.67 1.215.67 2.538v5.161c0 1.077.407 1.387 1.472 1.387v.407c-.441 0-1.473-.078-2.321-.078-.849 0-1.753.06-2.16.078v-.407c.927 0 1.274-.31 1.274-1.387v-5.584c0-1.2-.168-2.242-1.566-2.242-1.622 0-2.706 1.547-2.706 3.52v4.306c0 1.077.348 1.387 1.282 1.387v.407c-.404 0-1.32-.078-2.168-.078-.848 0-1.869.06-2.32.078v-.407c1.064 0 1.468-.31 1.468-1.387v-6.047c0-1.159-.348-1.708-1.469-1.708v-.404c.404.037.811.056 1.196.056.68.02 1.36-.07 2.011-.265v2.276c.68-1.738 1.97-2.332 3.293-2.332.98 0 1.603.265 2.044.725zM67.386 21.902c0 1.077.403 1.387 1.469 1.387v.408c-.442 0-1.45-.079-2.34-.079-.89 0-1.895.06-2.336.079v-.408c1.065 0 1.469-.31 1.469-1.387v-6.047c0-1.159-.348-1.708-1.47-1.708v-.404c.404.038.812.056 1.197.056.68.02 1.359-.07 2.01-.265v8.368zm.235-11.754a1.238 1.238 0 11-1.237-1.234 1.248 1.248 0 011.237 1.234zM78.422 22.28c.442.602.77.934 1.346 1.01v.407c-.291 0-.98-.079-1.566-.079-.811 0-1.734.06-2.138.079v-.408c.374 0 .594-.15.594-.374a.542.542 0 00-.115-.295l-2.217-3.244c-.47-.658-.774-.819-1.45-.849v3.364c0 1.077.347 1.387 1.27 1.387v.419c-.403 0-1.33-.079-2.141-.079-.886 0-1.895.06-2.336.079v-.408c1.065 0 1.469-.31 1.469-1.387V10.865c0-1.158-.348-1.697-1.469-1.697v-.407c.397.04.797.06 1.196.06.681.02 1.36-.074 2.01-.277v9.595a2.55 2.55 0 001.66-.8l1.432-1.495c.433-.452.613-.8.613-1.066 0-.47-.613-.661-1.424-.661v-.374c.673.038 1.622.075 2.179.075.643 0 1.293-.037 1.682-.075v.374c-.672.076-1.292.4-1.738.908l-2.347 2.47 3.49 4.785zM86.862 14.203c.613.62.774 1.338.774 2.706v5.37c0 .625.153.917.594.917.33-.018.64-.16.871-.397l.217.333c-.479.448-1.109.7-1.764.706-1.35 0-1.664-.81-1.664-1.715a3.364 3.364 0 01-2.99 1.715c-1.29 0-2.452-.65-2.452-2.16 0-1.51 1.181-2.209 3.114-3.02 1.293-.534 2.31-.867 2.31-1.64V15.81c0-1.622-.793-1.944-1.79-1.944-.662 0-1.473.131-1.914.688a1.192 1.192 0 01.904 1.181 1.013 1.013 0 01-1.121 1.047c-.662 0-1.047-.501-1.047-1.2 0-.564.374-1.01.905-1.375a4.981 4.981 0 012.706-.73c1.095 0 1.906.285 2.347.726zm-.972 3.592c-.205.314-.631.508-1.846 1.121-.849.407-1.869.964-1.869 2.456 0 1.158.658 1.697 1.544 1.697.774 0 1.529-.408 2.179-1.462l-.008-3.812zM32.626 30.574v1.267h-.337v-.957h-3.416v-3.678h.351v3.364h2.437v-3.364h.352v3.364l.613.004zM36.629 29.9c0 .636-.449.988-1.395.988H33.64v-3.682h1.55c.812 0 1.309.325 1.309.938a.841.841 0 01-.68.845.848.848 0 01.81.912zm-2.617-1.016h1.181c.628 0 .98-.239.98-.699 0-.46-.352-.691-.98-.691h-1.18v1.39zm2.276 1.017c0-.497-.302-.725-.994-.725h-1.282v1.439h1.237c.673-.019 1.04-.24 1.04-.714zM41.027 29.131h-3.162a1.57 1.57 0 002.732.95l.206.231a1.753 1.753 0 01-1.387.598 1.806 1.806 0 01-1.895-1.869 1.76 1.76 0 113.514 0c0 .019-.008.053-.008.09zm-3.154-.276h2.818a1.409 1.409 0 10-2.818 0zM44.478 27.524h-1.44v3.364h-.35v-3.364h-1.436v-.318h3.226v.318zM48.077 29.699c0 .781-.52 1.207-1.476 1.2h-1.376v-3.693h.374v1.327h1.095c.897.019 1.383.422 1.383 1.166zm-.351 0c0-.598-.374-.87-1.122-.886H45.6v1.798h1.005c.737.037 1.122-.306 1.122-.912zm1.028-2.493h.355v3.678h-.355v-3.678zM55.417 29.9c0 .636-.452.988-1.394.988h-1.592v-3.682h1.551c.808 0 1.308.325 1.308.938a.844.844 0 01-.684.845.848.848 0 01.811.912zm-2.642-1.012h1.185c.628 0 .98-.24.98-.699 0-.46-.352-.691-.98-.691h-1.185v1.39zm2.291 1.013c0-.497-.303-.725-.994-.725h-1.297v1.439h1.24c.685-.019 1.051-.24 1.051-.714zM62.665 25.954v4.93h-.374v-4.608h-3.338v4.608h-.374v-4.93h4.086zM67.445 29.131h-3.158a1.569 1.569 0 002.732.95l.206.231a1.753 1.753 0 01-1.387.598 1.806 1.806 0 01-1.895-1.869 1.76 1.76 0 113.513 0c-.003.019-.01.053-.01.09zm-3.158-.276h2.818a1.409 1.409 0 10-2.818 0zM70.891 27.524h-1.439v3.364h-.35v-3.364H67.65v-.318h3.225l.015.318zM74.61 29.131h-3.162a1.57 1.57 0 002.732.95l.202.231a1.75 1.75 0 01-1.386.598 1.805 1.805 0 01-1.895-1.869 1.758 1.758 0 011.76-1.869 1.74 1.74 0 011.757 1.87c0 .018-.008.052-.008.089zm-3.154-.277h2.814a1.409 1.409 0 00-2.814 0zM79.435 29.045a1.78 1.78 0 01-1.82 1.869 1.641 1.641 0 01-1.495-.864v2.206h-.351v-5.05h.336v.867a1.637 1.637 0 011.495-.893 1.782 1.782 0 011.835 1.865zm-.355 0a1.495 1.495 0 10-1.495 1.551 1.465 1.465 0 001.495-1.55zM84.048 29.075a1.75 1.75 0 01-1.82 1.843c-1.222 0-1.899-.95-1.899-2.4 0-1.67.606-2.396 1.843-2.691l1.637-.411.056.332-1.551.374c-1.122.262-1.619.837-1.641 2.243a1.645 1.645 0 011.614-1.092 1.704 1.704 0 011.76 1.802zm-.374 0a1.45 1.45 0 10-2.897 0 1.451 1.451 0 102.897 0zM88.088 27.206l-1.887 4.19c-.296.676-.662.893-1.148.893a1.173 1.173 0 01-.852-.332l.176-.266a.89.89 0 00.684.288c.336 0 .583-.153.81-.654l.195-.445-1.652-3.663h.374l1.472 3.29 1.473-3.29.355-.01zM92.61 29.045a1.775 1.775 0 01-1.816 1.869 1.651 1.651 0 01-1.495-.864v2.206h-.344v-5.05h.34v.867a1.637 1.637 0 011.495-.893 1.778 1.778 0 011.82 1.865zm-.35 0a1.494 1.494 0 10-1.496 1.551 1.466 1.466 0 001.495-1.551zM96.273 27.524H94.11v3.364h-.351v-3.682h2.515v.318zM99.992 29.131H96.83a1.57 1.57 0 002.733.95l.205.231a1.76 1.76 0 01-1.39.598 1.805 1.805 0 01-1.895-1.869 1.757 1.757 0 011.764-1.869 1.738 1.738 0 011.753 1.87c0 .018-.008.052-.008.089zm-3.154-.277h2.814a1.409 1.409 0 00-2.814 0z" fill="#AE7C78"/></g><defs><clipPath id="clip0"><path fill="#fff" d="M0 0h100v32.278H0z"/></clipPath></defs></svg>